/* XPM */
static char *_5db45c51d7949039050ff5cc319ea925gakjNOt2iABfs7X[] = {
/* columns rows colors chars-per-pixel */
"32 32 7 1 ",
"  c blue",
". c black",
"X c #28414B",
"o c #41555D",
"O c #458A79",
"+ c #5ECB93",
"@ c white",
/* pixels */
"     OO     OO                  ",
"     O     +O                   ",
"     OOXX  +OX                  ",
"     O+++X++OXX                 ",
"    +++O+++OXXO                 ",
"   +O+O++++OXOO                 ",
"   O+O+..OOOO.O                 ",
"   @+O+@.+OOO.O                 ",
"   @+O+@..+.O..O                ",
"   .OOO...+.O..O                ",
"   .OOO...+.OO.O                ",
"  .OOO..+++.OO.O                ",
"  ++++++.++OOO.OO               ",
" @.@.@.@++++OO.OO               ",
" @.@.@.@.@.+++.OOO              ",
"  .....@.@.++++++OX             ",
"   .............++OX            ",
"     ............++OoX          ",
"      .............+Oooo        ",
"      ..........OOO+OOoooX   o  ",
"       .........OOO+OOOooXXXXoo ",
"       @.......OOOOOOOOOooXXooo ",
"       @.@.@.@.OOOOOOOOOoooooo  ",
"        .@.@.@.OOOOOOOOoooooo   ",
"        oOOOOOOOOOOOOOOooooo    ",
"         oooooOOOOOOoooooo      ",
"          oooooooooooooooo      ",
"             OO      +oo        ",
"            OOO      +++        ",
"            OOO     +++         ",
"           OOO                  ",
"                                "
};
