/* XPM */
static char *result[] = {
/* columns rows colors chars-per-pixel */
"32 32 7 1 ",
"  c blue",
". c #28414B",
"X c #41555D",
"o c #458A79",
"O c #5ECB93",
"+ c white",
"@ c None",
/* pixels */
"@@@@@@@@@@@@@@@@@@@@@@@@@@@@@@@@",
"@@@@@@@@@@@@@@@@@@@@@@@@@@@@@@@@",
"@@@@@@@@@@@@@@@@@@@@@@@@@@@@@@@@",
"@@@@@@@@@@@@@@@@@@@@@@@@@@@@@@@@",
"@@@@@@@@@@@@@@@@@@@@@@@@@@@@@@@@",
"@@@@@@@@@@@@@@@@@@@@@@@@@@@@@@@@",
"@@@@@@@@@@@@@@@@@@@@@@@@@@@@@@@@",
"@@@@@@@@@oo@@@@@oo@@@@@@@@@@@@@@",
"@@@@@@@@@@oO@@@@@o@@@@@@@@@@@@@@",
"@@@@@@@@@.oO@@..oo@@@@@@@@@@@@@@",
"@@@@@@@@..oOO.OOOo@@@@@@@@@@@@@@",
"@@@@@@@@o..oOOOoOOO@@@@@@@@@@@@@",
"@@@@@@@@oo.oOOOOoOoO@@@@@@@@@@@@",
"@@@@@@@@o ooooooOoOo@@@@@@@@@@@@",
"@@@@@@@@o oooO  OoO @@@@@@@@@@@@",
"@@@@@@@o  o O  +OoO+@@@@@@@@@@@@",
"@@@@@@@o  o O   ooo @@@@@@@@@@@@",
"@@@@@@@o oo O   ooo @@@@@@@@@@@@",
"@@@@@@@o oo OOO  ooo @@@@@@@@@@@",
"@@@@@@@o oooOO OOOOOO@@@@@@@@@@@",
"@@@@@@@ooooOOOO+ + + +@@@@@@@@@@",
"@@@@@..ooooO +       +@@@@@@@@@@",
"@@@@...ooooO +        @@@@@@@@@@",
"@@@....oooooOoo       @@@@@@@@@@",
"@X..X..oooooooo      +@@@@@@@@@@",
"XXXXXX.Xooooooo+     +@@@@@@@@@@",
"@XXXXXXXXooooo + + + @@@@@@@@@@@",
"@@XXXXXXXoooooooooooX@@@@@@@@@@@",
"@@@@XXXXXXXXXooXXXXX@@@@@@@@@@@@",
"@@@@@@XXXXXXXXXXXXX@@@@@@@@@@@@@",
"@@@@@@@@XXO@@@@@@ooo@@@@@@@@@@@@",
"@@@@@@@@@OOO@@@@@@ooo@@@@@@@@@@@"
};
