/* XPM */
static char *result[] = {
/* columns rows colors chars-per-pixel */
"32 32 7 1 ",
"  c black",
". c #28414B",
"X c #41555D",
"o c #458A79",
"O c #5ECB93",
"+ c white",
"@ c blue",
/* pixels */
"@@@@@@@@@@@@@@@@@@@@@@@@@@@@@@@@",
"@@@@@@@@@@@@@@@@@@@@@@@@@@@@@@@@",
"@@@@@@@@@@@@@@@@@@@@@@@@@@@@@@@@",
"@@@@@@@@@@@@@@@@@@@@@@@@@@@@@@@@",
"@@@@@@@@@@@@@@@@@@@@@@@@@@@@@@@@",
"@@@@@@@@@@@@@@@@@@@@@@@@@@@@@@@@",
"@@@@@@@@@@@@@@@@@@@@@@@@@@@@@@@@",
"@@@@@@@@@@@@@@@@@@@@@@@@@@@@@@@@",
"@@@@@@@@@@@@@@@@@@@@@@@@@@@@@@@@",
"@@@@@@@@@@@@@@@@@@@@@@@@@@@@@@@@",
"@@@@@@@@@@@@@@@@@@@@@@@@@@@@@@@@",
"@@@@@@@@@@@@@@@@@@@@@@@@@@@@@@@@",
"@@@@@@@@@@@@o@@@@@oo@@@@@@@@@@@@",
"@@@@@@@@@@@@oo@@@@Oo.@@@@@@@@@@@",
"@@@@@@@@@@@@@oo..OOo..@@@@@@@@@@",
"@@@@@@@@@@@@@oOOOOOOo...@@@@@@@@",
"@@@@@@@@@@@@@OOOoOOOo.oo@@@@@@@@",
"@@@@@@@@@@@@ooOoOOoooo o@@@@@@@@",
"@@@@@@@@@@@@oOoOOooooo o@@@@@@@@",
"@@@@@@@@@@@@ OoO   O o o.@@@@@@@",
"@@@@@@@@@@@@+ooo+  O o  o@@@@@@@",
"@@@@@@@@@@@@ ooo O O oo o..@@X@@",
"@@@@@@@@@@@@ ooo OOO ooooo....X@",
"@@@@@@@@@@@@OOOOO  OOooooo..XXX@",
"@@@@@@@@@@@O + + OOOOooooo.XXX@@",
"@@@@@@@@@@@O      OOoooooo.XXX@@",
"@@@@@@@@@@@@+   + oooooooXXXX@@@",
"@@@@@@@@@@@@XooXooooooooXXXXX@@@",
"@@@@@@@@@@@@@XXXXXooXXXXXXXX@@@@",
"@@@@@@@@@@@@@oXXXXXXXXXO@@@@@@@@",
"@@@@@@@@@@@@ooo@@@@@@OOO@@@@@@@@",
"@@@@@@@@@@@ooo@@@@@@OOO@@@@@@@@@"
};
