/* XPM */
static char *result[] = {
/* columns rows colors chars-per-pixel */
"32 32 7 1 ",
"  c black",
". c #28414B",
"X c #41555D",
"o c #458A79",
"O c #5ECB93",
"+ c white",
"@ c blue",
/* pixels */
"@@@@@@@@@@@@@@@@@@@@@@@@@@@@@@@@",
"@@@@@@@@@@@@@@@@@@@@@@@@@@@@@@@@",
"@@@@@@@@@@@@@@@@@@@@@@@@@@@@@@@@",
"@@@@@@@@@@@@@@@@@@@@@@@@@@@@@@@@",
"@@@@@@@@@@@@@@@@@@@@@@@@@@@@@@@@",
"@@@@@@@@@@@@@@@@@@@@@@@@@@@@@@@@",
"@@@@@@@@@@@@@@@@@@@@@@@@@@@@@@@@",
"@@@@@@@@@@@@@@@@@@@@@@@@@@@@@@@@",
"@@@@@@@@@@@@@O@@@@@@@@@@@@@@@@@@",
"@@@@@oo@+++OOo@@@@@@@@@@@@@@@@@@",
"@@@@@o+++@@Oo@@@@@@@@@@@@@@@@@@@",
"@@@@+++..@@Oo.@@@@@@@@@@@@@@@@@@",
"@@+++oOOO.OOo..@@@@@@@@@@@@@@@@@",
"@++@OOOoOOOo..o@@@@@@@@@@@@@@@@@",
"+++OoOoOOOOo.oo@@@@@@@@@@@@@@@@@",
"++@oOoO  oooo o@@+@@@@@@@@@@@@@@",
"@+@+OoO+ Oooo ooo+@@@@@@@@@@@@@@",
"@+@+OoO+  +++  oo+@@@@@@@@@@@@@@",
"++@ ooo  ++ +++o++X.@@@@@@@@@@@@",
"++@ ooo ++O oo+++oX..@@@@@@@@@@@",
"++ ooo  +OO oo oooXX..@@@@@@@@@@",
"@+OOOOO++OOooo ooooXX...@@@@@@@@",
"@+ +++ +OOOOoo oooooXXX..@@@X@@@",
"@+++++ +++++OO oooooXXXX....XX@@",
"@@+++@ ++++OOOOooooooXXXX..XXX@@",
"@@+++@+ + + + OoooooooXXXXXXXX@@",
"@@+++@+ + + + OoooooooXXXXXXX@@@",
"@@+@+@@X+XXoooooooooXXXXXXXX@@@@",
"@@+@@@@@+XXXXXXXXooXXXXXXXX@@@@@",
"@@+@@@@@+@@@@XXXXXXXXXXXXX@@@@@@",
"@@@@@@@@@@@@ooo@@@@@@OXX@@@@@@@@",
"@@@@@@@@@@@ooo@@@@@@OOO@@@@@@@@@"
};
