/* XPM */
static char *result[] = {
/* columns rows colors chars-per-pixel */
"32 32 7 1 ",
"  c blue",
". c #28414B",
"X c #41555D",
"o c #458A79",
"O c #5ECB93",
"+ c white",
"@ c None",
/* pixels */
"@@@@@@@@@@@@@@@@@@@@@@@@@@@@@@@@",
"@@@@@@@@@@@@@@@@@@@@@@@@@@@@@@@@",
"@@@@@@@@@@@@@@@@@@@@@@@@@@@@@@@@",
"@@@@@@@@@@@@@@@@@@@@@@@@@@@@@@@@",
"@@@@@@@@@@@@@@@@@@@@@@@@@@@@@@@@",
"@@@@@@@@@@@@@@@@@@O@@@@@@@@@@@@@",
"@@@@@@@@@@@@@@@@@@oOO@@@@oo@@@@@",
"@@@@@@@@@@@@@@@@@@@oO@@@@@o@@@@@",
"@@@@@@@@@@@@@@@@@@.oO@@..oo@@@@@",
"@@@@@@@@@@@@@@@@@..oOO.OOOo@@@@@",
"@@@@@@@@@@@@@@@@@o..oOOOoOOO@@@@",
"@@@@@@@@@@@@@@@@@oo.oOOOOoOoO@@@",
"@@@@@@@@@@@@@@@@@o oooo  OoOo@@@",
"@@@@@@@@@@@@@@@Xoo oooO +OoO+@@@",
"@@@@@@@@@@@@@XXXo  o O  +OoO+@@@",
"@@@@@@@@@@@@@XXXo  o O   ooo @@@",
"@@@@@@@@@@@@@XXoo oo O   ooo @@@",
"@@@@@@@@@@@@.XXoo oo OOO  ooo @@",
"@@@@@@@@@@@@.XXoo oooOO OOOOOO@@",
"@@@@@@@@@@@..XXoo ooOOOO+ + + +@",
"@@@@@@@@@...XXooo OOO + + + + +@",
"@@@@@@@@..XXXooooOOOO + +    @@@",
"@@X@@@..XXXooooooO          @@+@",
"@XX.....XXoooooooO         @@@+@",
"@XXX...XXXoooooooO      + @@@@+@",
"@@XXXXXXXooooooooO +++++ +@@@++@",
"@@@XXXXXXXoooooooO + +++ +@@++@@",
"@@@@@XXXXXXXooooooooo+XXX@@@++@@",
"@@@@@@XXXXXXXooXXXXXXXX+@@@+++@@",
"@@@@@@XXXXXXXXXXXXX@@@@+@@@+@@@@",
"@@@@@@@@XXO@@@@@@ooo@@@+@@@@@@@@",
"@@@@@@@@@OOO@@@@@@ooo@@+@@@@@@@@"
};
