/* XPM */
static char *result[] = {
/* columns rows colors chars-per-pixel */
"32 32 7 1 ",
"  c black",
". c #28414B",
"X c #41555D",
"o c #458A79",
"O c #5ECB93",
"+ c white",
"@ c blue",
/* pixels */
"@@@@@@@@@@@@@@@@@@@@@@@@@@@@@@@@",
"@@@@@@@@@@@@@@@@@@@@@@@@@@@@@@@@",
"@@@@@@@@@@@@@@@@@@@@@@@@@@@@@@@@",
"@@@@@@@@@@@@@@@@@@@@@@@@@@@@@@@@",
"@@@@@@@@@@@@@@@@@@@@@@@@@@@@@@@@",
"@@@@@@@@@@@@@@@@@@@@@@@@@@@@@@@@",
"@@@@@@@@@@@@@@oo@@@@@oo@@@@@@@@@",
"@@@@@@@@@@@@@@o@@@@@Oo@@@@@@@@@@",
"@@@@@@@@@@@@@@oo..@@Oo.@@@@@@@@@",
"@@@@@@@@@@@@@@oOOO.OOo..@@@@@@@@",
"@@@@@@@@@@@@@OOOoOOOo..o@@@@@@@@",
"@@@@@@@@@@@@OoOoOOOOo.oo@@@@@@@@",
"@@@@@@@@@@@@oOoO  oooo o@@@@@@@@",
"@@@@@@@@@@@@+OoO+ Oooo o@@@@@@@@",
"@@@@@@@@@@@@+OoO+  O o  o@@@@@@@",
"@@@@@@@@@@@@ ooo   O o  o@@@@@@@",
"@@@@@@@@@@@@ ooo   O oo o@@@@@@@",
"@@@@@@@@@@@ ooo  OOO oo o@@@@@@@",
"@@@@@@@@@@@OOOOOO OOooo o@@@@@@@",
"@@@@@@@@@@+ + + +OOOOoo o@@@@@@@",
"@@@@@@@@@@+ + + + + Ooo o@@@@@@@",
"@@@@@@@@@@      + + Ooo o..@@@@@",
"@@@@@@@@@@        oOooooo...@@@@",
"@@@@@@@@@@       ooOooooo....@@@",
"@@@@@@@@@@+      oooooooo..X..X@",
"@@@@@@@@@@+ + + +oooooooX.XXXXXX",
"@@@@@@@@@@@ + + + oooooXXXXXXXX@",
"@@@@@@@@@@@XoooooooooooXXXXXXX@@",
"@@@@@@@@@@@@XXXXXooXXXXXXXXX@@@@",
"@@@@@@@@@@@@@XXXXXXXXXXXXX@@@@@@",
"@@@@@@@@@@@@ooo@@@@@@OXX@@@@@@@@",
"@@@@@@@@@@@ooo@@@@@@OOO@@@@@@@@@"
};
