/* XPM */
static char *result[] = {
/* columns rows colors chars-per-pixel */
"32 32 7 1 ",
"  c black",
". c #28414B",
"X c #41555D",
"o c #458A79",
"O c #5ECB93",
"+ c white",
"@ c None",
/* pixels */
"@@@@@@@@@@@@@@@@@@@@@@@@@@@@@@@@",
"@@@@@@@@@@@@@@@@@@@@@@@@@@@@@@@@",
"@@@@@@@@@@@@@@@@@@@@@@@@@@@@@@@@",
"@@@@@@@@@@@@@@@@@@@@@@@@@@@@@@@@",
"@@@@@@@@@@@@@@@@@@@@@@@@@@@@@@@@",
"@@@@@@@@@@@@@@@O@@@@@@@@@@@@@@@@",
"@@@@@@@@@@@@@@@oOO@@@@oo@@@@@@@@",
"@@@@@@@@@@@@@@@@oO@@@@@o@@@@@@@@",
"@@@@@@@@@@@@@@@.oO@@..oo@@@@@@@@",
"@@@@@@@@@@@@@@..oOO.OOOo@@@@@@@@",
"@@@@@@@@@@@@@@o..oOOOoOOO@@@@@@@",
"@@@@@@@@@@@@@@oo.oOOOOoOoO@@@@@@",
"@@@@@@@@@@@@@@o oooo  OoOo@@@@@@",
"@@@@@@@@@@@@@@o oooO +OoO+@@@@@@",
"@@@@@@@@@@@@@o  o O  +OoO+@@@@@@",
"@@@@@@@@@@@@oo  o O   ooo @@@@@@",
"@@@@@@@@@@@ooo oo O   ooo @@@@@@",
"@@@@@@@@@@@Xoo oo OOO  ooo @@@@@",
"@@@@@@@@@@.Xoo oooOO OOOOOO@@@@@",
"@@@@@@@@@..Xoo ooOOOO+ + + +@@@@",
"@@@@@@@@@.XXoo OOO + + + + +@@@@",
"@@@@@@@..XXXooOOOO + +     @@@@@",
"@X@@@...XXXoooooO         @@@@@@",
"XX.....XXoooooooO        @@@@@@@",
"XXX....XXoooooooO + + + +@@@@@@@",
"@XXXXX.XXoooooooO + + + +@@@@@@@",
"@@XXXXXXXXooooooooooXXXX@@@@@@@@",
"@@@@XXXXXXXXoooooXXXXXX@@@@@@@@@",
"@@@@@XXXXXXXXooXXXXX@@@@@@@@@@@@",
"@@@@@@XXXXXXXXXXXXX@@+@@@@@@+@@@",
"@@@@@@@@XXO@@@@@@ooo@@@@@@@++@@@",
"@@@@@@@@@OOO@@@@@@ooo@@@@@@+@@@@"
};
