/* XPM */
static char *result[] = {
/* columns rows colors chars-per-pixel */
"32 32 7 1 ",
"  c black",
". c #28414B",
"X c #41555D",
"o c #458A79",
"O c #5ECB93",
"+ c white",
"@ c blue",
/* pixels */
"@@@@@@@@@@@@@@@@@@@@@@@@@@@@@@@@",
"@@@@@@@@@@@@@@@@@@@@@@@@@@@@@@@@",
"@@@@@@@@@@@@@@@@@@@@@@@@@@@@@@@@",
"@@@@@@@@@@@@@@@@@@@@@@@@@@@@@@@@",
"@@@@@@@@@@@@@@@@@@@@@@@@@@@@@@@@",
"@@@@@@@@@@@@@O@@@@@@@@@@@@@@@@@@",
"@@@@@oo@@@@OOo@@@@@@@@@@@@@@@@@@",
"@@@@@o@@@@@Oo@@@@@@@@@@@@@@@@@@@",
"@@@@@oo..@@Oo.@@@@@@@@@@@@@@@@@@",
"@@@@@oOOO.OOo..@@@@@@@@@@@@@@@@@",
"@@@@OOOoOOOo..o@@@@@@@@@@@@@@@@@",
"@@@OoOoOOOOo.oo@@@@@@@@@@@@@@@@@",
"@@@oOoO  oooo o@@@@@@@@@@@@@@@@@",
"@@@+OoO+ Oooo ooX@@@@@@@@@@@@@@@",
"@@@+OoO+  O o  oXXX@@@@@@@@@@@@@",
"@@@ ooo   O o  oXXX@@@@@@@@@@@@@",
"@@@ ooo   O oo ooXX@@@@@@@@@@@@@",
"@@ ooo  OOO oo ooXX.@@@@@@@@@@@@",
"@@OOOOOO OOooo ooXX.@@@@@@@@@@@@",
"@+ + + +OOOOoo ooXX..@@@@@@@@@@@",
"@+ + + + + OOO oooXX...@@@@@@@@@",
"@@@    + + OOOOooooXXX..@@@@@@@@",
"@+@@          OooooooXXX..@@@X@@",
"@+@@@         OoooooooXX.....XX@",
"@+@@@@ +      OoooooooXXX...XXX@",
"@++@@@+ +++++ OooooooooXXXXXXX@@",
"@@++@@+ +++ + OoooooooXXXXXXX@@@",
"@@++@@@XXX+oooooooooXXXXXXX@@@@@",
"@@+++@@@+XXXXXXXXooXXXXXXX@@@@@@",
"@@@@+@@@+@@@@XXXXXXXXXXXXX@@@@@@",
"@@@@@@@@+@@@ooo@@@@@@OXX@@@@@@@@",
"@@@@@@@@+@@ooo@@@@@@OOO@@@@@@@@@"
};
