/* XPM */
static char *result[] = {
/* columns rows colors chars-per-pixel */
"32 32 7 1 ",
"  c black",
". c #28414B",
"X c #41555D",
"o c #458A79",
"O c #5ECB93",
"+ c white",
"@ c blue",
/* pixels */
"@@@@@@@@@@@@@@@@@@@@@@@@@@@@@@@@",
"@@@@@@@@@@@@@@@@@@@@@@@@@@@@@@@@",
"@@@@@@@@@@@@@@@@@@@@@@@@@@@@@@@@",
"@@@@@@@@@@@@@@@@@@@@@@@@@@@@@@@@",
"@@@@@@@@@@@@@@@@@@@@@@@@@@@@@@@@",
"@@@@@@@@@@@@@@@@O@@@@@@@@@@@@@@@",
"@@@@@@@@oo@@@@OOo@@@@@@@@@@@@@@@",
"@@@@@@@@o@@@@@Oo@@@@@@@@@@@@@@@@",
"@@@@@@@@oo..@@Oo.@@@@@@@@@@@@@@@",
"@@@@@@@@oOOO.OOo..@@@@@@@@@@@@@@",
"@@@@@@@OOOoOOOo..o@@@@@@@@@@@@@@",
"@@@@@@OoOoOOOOo.oo@@@@@@@@@@@@@@",
"@@@@@@oOoO  oooo o@@@@@@@@@@@@@@",
"@@@@@@+OoO+ Oooo o@@@@@@@@@@@@@@",
"@@@@@@+OoO+  O o  o@@@@@@@@@@@@@",
"@@@@@@ ooo   O o  oo@@@@@@@@@@@@",
"@@@@@@ ooo   O oo ooo@@@@@@@@@@@",
"@@@@@ ooo  OOO oo ooX@@@@@@@@@@@",
"@@@@@OOOOOO OOooo ooX.@@@@@@@@@@",
"@@@@+ + + +OOOOoo ooX..@@@@@@@@@",
"@@@@+ + + + + OOO ooXX.@@@@@@@@@",
"@@@@@     + + OOOOooXXX..@@@@@@@",
"@@@@@@         OoooooXXX...@@@X@",
"@@@@@@@        OoooooooXX.....XX",
"@@@@@@@+ + + + OoooooooXX....XXX",
"@@@@@@@+ + + + OoooooooXX.XXXXX@",
"@@@@@@@@XXXXooooooooooXXXXXXXX@@",
"@@@@@@@@@XXXXXXoooooXXXXXXXX@@@@",
"@@@@@@@@@@@@XXXXXooXXXXXXXX@@@@@",
"@@@+@@@@@@+@@XXXXXXXXXXXXX@@@@@@",
"@@@++@@@@@@@ooo@@@@@@OXX@@@@@@@@",
"@@@@+@@@@@@ooo@@@@@@OOO@@@@@@@@@"
};
