/* XPM */
static char *result[] = {
/* columns rows colors chars-per-pixel */
"32 32 7 1 ",
"  c blue",
". c #28414B",
"X c #41555D",
"o c #458A79",
"O c #5ECB93",
"+ c white",
"@ c None",
/* pixels */
"@@@@@@@@@@@@@@@@@@@@@@@@@@@@@@@@",
"@@@@@@@@@@@@@@@@@@@@@@@@@@@@@@@@",
"@@@@@@@@@@@@@@@@@@@@@@@@@@@@@@@@",
"@@@@@@@@@@@@@@@@@@@@@@@@@@@@@@@@",
"@@@@@@@@@@@@@@@@@@@@@@@@@@@@@@@@",
"@@@@@@@@@@@@@@@@@@@@@@@@@@@@@@@@",
"@@@@@@@@@@@@@@@@@@@@@@@@@@@@@@@@",
"@@@@@@@@@@@@@@@@@@@@@@@@@@@@@@@@",
"@@@@@@@@@@@@@@@@@@O@@@@@@@@@@@@@",
"@@@@@@@@@@@@@@@@@@oOO+++@oo@@@@@",
"@@@@@@@@@@@@@@@@@@@oO@@+++o@@@@@",
"@@@@@@@@@@@@@@@@@@.oO@@..+++@@@@",
"@@@@@@@@@@@@@@@@@..oOO.OOOo+++@@",
"@@@@@@@@@@@@@@@@@o..oOOOoOOO@++@",
"@@@@@@@@@@@@@@@@@oo.oOOOOoOoO+++",
"@@@@@@@@@@@@@@+@@o oooo  OoOo@++",
"@@@@@@@@@@@@@@+ooo oooO +OoO+@+@",
"@@@@@@@@@@@@@@+oo  +++  +OoO+@+@",
"@@@@@@@@@@@@.X++o+++ ++  ooo @++",
"@@@@@@@@@@@..Xo+++oo O++ ooo @++",
"@@@@@@@@@@..XXooo oo OO+  ooo ++",
"@@@@@@@@...XXoooo oooOO++OOOOO+@",
"@@@X@@@..XXXooooo ooOOOO+ +++ +@",
"@@XX....XXXXooooo OO+++++ +++++@",
"@@XXX..XXXXooooooOOOO++++ @+++@@",
"@@XXXXXXXXoooooooO + + + +@+++@@",
"@@@XXXXXXXoooooooO + + + +@+++@@",
"@@@@XXXXXXXXoooooooooXX+X@@+@+@@",
"@@@@@XXXXXXXXooXXXXXXXX+@@@@@+@@",
"@@@@@@XXXXXXXXXXXXX@@@@+@@@@@+@@",
"@@@@@@@@XXO@@@@@@ooo@@@@@@@@@@@@",
"@@@@@@@@@OOO@@@@@@ooo@@@@@@@@@@@"
};
