/* XPM */
static char *result[] = {
/* columns rows colors chars-per-pixel */
"32 32 7 1 ",
"  c black",
". c #28414B",
"X c #41555D",
"o c #458A79",
"O c #5ECB93",
"+ c white",
"@ c blue",
/* pixels */
"@@@@@@@@@@@@@@@@@@@@@@@@@@@@@@@@",
"@@@@@@@@@@@@@@@@@@@@@@@@@@@@@@@@",
"@@@@@@@@@@@@@@@@@@@@@@@@@@@@@@@@",
"@@@@@@@@@@@@@@@@@@@@@@@@@@@@@@@@",
"@@@@@@@@@@@@@@@@@@@@@@@@@@@@@@@@",
"@@@@@@@@@@@@@@@@@@@@@@@@@@@@@@@@",
"@@@@@@@@@@@@@@@@@@@@@@@@@@@@@@@@",
"@@@@@@@@@@@@@@@@@@@@@@@@@@@@@@@@",
"@@@@@@@@@@@@@@@@@@@@@@@@@@@@@@@@",
"@@@@@@@@@@@@@@@@@@@@@@@@@@@@@@@@",
"@@@@@@@@@@@@@@@@@@@@@@@@@@@@@@@@",
"@@@@@@@@@@@@@@@@@@@@@@@@@@@@@@@@",
"@@@@@@@@@@@@oo@@@@@o@@@@@@@@@@@@",
"@@@@@@@@@@@.oO@@@@oo@@@@@@@@@@@@",
"@@@@@@@@@@..oOO..oo@@@@@@@@@@@@@",
"@@@@@@@@...oOOOOOOo@@@@@@@@@@@@@",
"@@@@@@@@oo.oOOOoOOO@@@@@@@@@@@@@",
"@@@@@@@@o ooooOOoOoo@@@@@@@@@@@@",
"@@@@@@@@o oooooOOoOo@@@@@@@@@@@@",
"@@@@@@@.o o O   OoO @@@@@@@@@@@@",
"@@@@@@@o  o O  +ooo+@@@@@@@@@@@@",
"@@X@@..o oo O O ooo @@@@@@@@@@@@",
"@X....ooooo OOO ooo @@@@@@@@@@@@",
"@XXX..oooooOO  OOOOO@@@@@@@@@@@@",
"@@XXX.oooooOOOO + + O@@@@@@@@@@@",
"@@XXX.ooooooOO      O@@@@@@@@@@@",
"@@@XXXXooooooo +   +@@@@@@@@@@@@",
"@@@XXXXXooooooooXooX@@@@@@@@@@@@",
"@@@@XXXXXXXXooXXXXX@@@@@@@@@@@@@",
"@@@@@@@@OXXXXXXXXXo@@@@@@@@@@@@@",
"@@@@@@@@OOO@@@@@@ooo@@@@@@@@@@@@",
"@@@@@@@@@OOO@@@@@@ooo@@@@@@@@@@@"
};
