/* XPM */
static char *_5db45c51d7949039050ff5cc319ea925gakjNOt2iABfs7X[] = {
/* columns rows colors chars-per-pixel */
"32 32 7 1 ",
"  c None",
". c black",
"X c #28414B",
"o c #41555D",
"O c #458A79",
"+ c #5ECB93",
"@ c white",
/* pixels */
"                  OO     OO     ",
"                   O+     O     ",
"                  XO+  XXOO     ",
"                 XXO++X+++O     ",
"                 OXXO+++O+++    ",
"                 OOXO++++O+O+   ",
"                 O.OOOO..+O+O   ",
"                 O.OOO+.@+O+@   ",
"                O..O.+..@+O+@   ",
"                O..O.+...OOO.   ",
"                O.OO.+...OOO.   ",
"                O.OO.+++..OOO.  ",
"               OO.OOO++.++++++  ",
"               OO.OO++++@.@.@.@ ",
"              OOO.+++.@.@.@.@.@ ",
"             XO++++++.@.@.....  ",
"            XO++.............   ",
"          XoO++............     ",
"        oooO+.............      ",
"  o   XoooOO+OOO..........      ",
" ooXXXXooOOO+OOO.........       ",
" oooXXooOOOOOOOOO.......@       ",
"  ooooooOOOOOOOOO.@.@.@.@       ",
"   ooooooOOOOOOOO.@.@.@.        ",
"    oooooOOOOOOOOOOOOOOo        ",
"      ooooooOOOOOOooooo         ",
"      oooooooooooooooo          ",
"        oo+      OO             ",
"        +++      OOO            ",
"         +++     OOO            ",
"                  OOO           ",
"                                "
};
