/* XPM */
static char *_82ab9a8fb294fc2ae307fdd7618bcc1drwaEXrGJ88UcLK2[] = {
/* columns rows colors chars-per-pixel */
"32 32 7 1 ",
"  c blue",
". c black",
"X c #28414B",
"o c #41555D",
"O c #458A79",
"+ c #5ECB93",
"@ c white",
/* pixels */
"             OO     OO          ",
"             O     +O           ",
"             OOXX  +OX          ",
"             O+++X++OXX         ",
"            +++O+++OXXO         ",
"           +O+O++++OXOO         ",
"           O+O+..OOOO.O         ",
"           @+O+@.+OOO.O         ",
"           @+O+@..+.O..O        ",
"           .OOO...+.O..O        ",
"           .OOO...+.OO.O        ",
"          .OOO..+++.OO.O        ",
"          ++++++.++OOO.OX       ",
"         @.@.@.@++++OO.OX       ",
"         @.@.@.@.@.+OO.OX       ",
"          .....@.@.+OO.OX       ",
"          .........+OOOOXXX     ",
"          ........O+OOOOXXXX    ",
"          .......OO+OOOOOXXXX   ",
"          @......OOOOOOOOXXoXX  ",
"          @.@.@.@OOOOOOOoXoooo  ",
"           .@.@.@.OOOOOooooooo  ",
"           oOOOOOOOOOOOooooooo  ",
"            oooooOOoooooooooooo ",
"             ooooooooooooo   oo ",
"             OO      +oo        ",
"            OOO     +++         ",
"           OOO                  ",
"                                ",
"                                ",
"                                ",
"                                "
};
