/* XPM */
static char *_3a904d2c6524378d529409a032582e45UoPFKCjhja0gTjN[] = {
/* columns rows colors chars-per-pixel */
"32 32 6 1 ",
"  c #2D0D1D",
". c #3B1D2D",
"X c #4F2736",
"o c #653444",
"O c #8B4A3E",
"+ c #A25B45",
/* pixels */
". . . . . . . . . . . . . . . . ",
" ooooooooooooooooooooooooooooo. ",
" XXoOOOOOOOOOOOOOOOOOOOOOOOOo.. ",
" XXXoOOOOOOOOOOOOOOOOOOOOOOo... ",
".XXXXoOOOOOOOOOOOOOOOOOOOOo.... ",
" XXXXXoOOOOOOOOOOOOOOOOOOo..... ",
".XXXXXXoOOOOOOOOOOOOOOOOo...... ",
" XXXXXXXoOOOOOOOOOOOOOOo....... ",
".XXXXXXXXoOOOOOOOOOOOOo........ ",
" XXXXXXXXXoooooooooooo......... ",
" XXXXXXXXXoooooooooooo......... ",
" XXXXXXXXXoooooooooooo......... ",
" XXXXXXXXXoooooooooooo......... ",
" XXXXXXXXXoooooooooooo......... ",
" XXXXXXXXXoooooooooooo......... ",
" XXXXXXXXXoooooooooooo......... ",
" XXXXXXXXXoooooooooooo......... ",
" XXXXXXXXXoooooooooooo......... ",
" XXXXXXXXXoooooooooooo......... ",
" XXXXXXXXXoooooooooooo......... ",
".XXXXXXXXXoooooooooooo......... ",
" XXXXXXXXXoooooooooooo......... ",
".XXXXXXXX              ........ ",
" XXXXXXX                ....... ",
".XXXXXX                  ...... ",
" XXXXX                    ..... ",
" XXXX                      .... ",
" XXX                        ... ",
".XX                          .. ",
" X                            . ",
"                                ",
"                                "
};
