/* XPM */
static char *c6c875da95a1469d96f11d2c41bd6c4efE0Dxuc1vBu0bZ5X[] = {
/* columns rows colors chars-per-pixel */
"32 32 4 1 ",
"  c #59413E",
". c #514047",
"X c #77514C",
"o c #8D5D57",
/* pixels */
".XXXXX...XXXXX...XXXXX...XXXXX..",
"XXXXXXo.XXXXXXo.XXXXXXo.XXXXXXo.",
"XXXXXXo.XXXXXXo.XXXXXXo.XXXXXXo.",
"XXXXXXo.XXXXXXo.XXXXXXo.XXXXXXo.",
"XXXXXXo.XXXXXXo.XXXXXXo.XXXXXXo.",
"XXXXXoo.XXXXXoo.XXXXXXo.XXXXXXo.",
" ooooo . ooooo . ooooo . ooooo .",
".     ...     ...     ...     ..",
".XXXXX...XXXXX...XXXXX...XXXXX..",
"XXXXXXo.XXXXXXo.XXXXXXo.XXXXXXo.",
"XXXXXXo.XXXXXXo.XXXXXXo.XXXXXXo.",
"XXXXXXo.XXXXXXo.XXXXXXo.XXXXXXo.",
"XXXXXXo.XXXXXXo.XXXXXXo.XXXXXXo.",
"XXXXXoo.XXXXXoo.XXXXXXo.XXXXXXo.",
" ooooo . ooooo . ooooo . ooooo .",
".     ...     ...     ...     ..",
".XXXXX...XXXXX...XXXXX...XXXXX..",
"XXXXXXo.XXXXXXo.XXXXXXo.XXXXXXo.",
"XXXXXXo.XXXXXXo.XXXXXXo.XXXXXXo.",
"XXXXXXo.XXXXXXo.XXXXXXo.XXXXXXo.",
"XXXXXXo.XXXXXXo.XXXXXXo.XXXXXXo.",
"XXXXXoo.XXXXXoo.XXXXXXo.XXXXXXo.",
" ooooo . ooooo . ooooo . ooooo .",
".     ...     ...     ...     ..",
".XXXXX...XXXXX...XXXXX...XXXXX..",
"XXXXXXo.XXXXXXo.XXXXXXo.XXXXXXo.",
"XXXXXXo.XXXXXXo.XXXXXXo.XXXXXXo.",
"XXXXXXo.XXXXXXo.XXXXXXo.XXXXXXo.",
"XXXXXXo.XXXXXXo.XXXXXXo.XXXXXXo.",
"XXXXXoo.XXXXXoo.XXXXXXo.XXXXXXo.",
" ooooo . ooooo . ooooo . ooooo .",
".     ...     ...     ...     .."
};
