/* XPM */
static char *c6c875da95a1469d96f11d2c41bd6c4efE0Dxuc1vBu0bZ5X[] = {
/* columns rows colors chars-per-pixel */
"32 32 4 1 ",
"  c #59413E",
". c #514047",
"X c #77514C",
"o c #8D5D57",
/* pixels */
".XXXXXXXXXXXXX...XXXXXXXXXXXXX..",
"XXXXXXXXXXXXXXo.XXXXXXXXXXXXXXo.",
"XXXXXXXXXXXXXXo.XXXXXXXXXXXXXXo.",
"XXXXXXXXXXXXXXo.XXXXXXXXXXXXXXo.",
"XXXXXXXXXXXXXXo.XXXXXXXXXXXXXXo.",
"XXXXXXXXXXXXXoo.XXXXXXXXXXXXXXo.",
"XXXXXXXXXXXXXXo.XXXXXXXXXXXXXXo.",
"XXXXXXXXXXXXXXo.XXXXXXXXXXXXXXo.",
"XXXXXXXXXXXXXXo.XXXXXXXXXXXXXXo.",
"XXXXXXXXXXXXXXo.XXXXXXXXXXXXXXo.",
"XXXXXXXXXXXXXoo.XXXXXXXXXXXXXXo.",
"XXXXXXXXXXXXXXo.XXXXXXXXXXXXXXo.",
"XXXXXXXXXXXXXXo.XXXXXXXXXXXXXXo.",
"XXXXXXXXXXXXXoo.XXXXXXXXXXXXXXo.",
" ooooooooooooo . ooooooooooooo .",
".             ...             ..",
".XXXXXXXXXXXXX...XXXXXXXXXXXXX..",
"XXXXXXXXXXXXXXo.XXXXXXXXXXXXXXo.",
"XXXXXXXXXXXXXXo.XXXXXXXXXXXXXXo.",
"XXXXXXXXXXXXXXo.XXXXXXXXXXXXXXo.",
"XXXXXXXXXXXXXXo.XXXXXXXXXXXXXXo.",
"XXXXXXXXXXXXXoo.XXXXXXXXXXXXXXo.",
"XXXXXXXXXXXXXXo.XXXXXXXXXXXXXXo.",
"XXXXXXXXXXXXXXo.XXXXXXXXXXXXXXo.",
"XXXXXXXXXXXXXXo.XXXXXXXXXXXXXXo.",
"XXXXXXXXXXXXXXo.XXXXXXXXXXXXXXo.",
"XXXXXXXXXXXXXoo.XXXXXXXXXXXXXXo.",
"XXXXXXXXXXXXXXo.XXXXXXXXXXXXXXo.",
"XXXXXXXXXXXXXXo.XXXXXXXXXXXXXXo.",
"XXXXXXXXXXXXXoo.XXXXXXXXXXXXXXo.",
" ooooooooooooo . ooooooooooooo .",
".             ...             .."
};
