/* XPM */
static char *_2d09291a404422fdb1cbf3f3a77cff61Md513YsKwWukCU6[] = {
/* columns rows colors chars-per-pixel */
"16 16 10 1 ",
"  c blue",
". c black",
"X c #45283C",
"o c #663931",
"O c #AC3232",
"+ c #DF7126",
"@ c #D95763",
"# c #FBF236",
"$ c #D9A066",
"% c #EEC39A",
/* pixels */
"     ......     ",
"    .######.    ",
"   .%oooooo#.   ",
"   .%XXXXXX#.   ",
"   .$%%#####.   ",
"  .OO$$$%%#@@.  ",
"  .OO+$@@%#O@.  ",
"   ..++O@%#..   ",
"     .+$%%.     ",
"      .+%.      ",
"      .+%.      ",
"     ..+%..     ",
"    .+.+%.#.    ",
"   .++$$%###.   ",
"    .+$$%%#.    ",
"     ......     "
};
