/* XPM */
static char *_6a2806b24a54b88e1ba0e21d8cbf7c4gXgBHMw27NvqhRsh[] = {
/* columns rows colors chars-per-pixel */
"16 16 9 1 ",
"  c None",
". c black",
"X c #3F3F74",
"o c #8F563B",
"O c #8A6F30",
"+ c #D9A066",
"@ c #5B6EE1",
"# c #639BFF",
"$ c #EEC39A",
/* pixels */
"  ...           ",
" .$$$.          ",
".$$$$$.         ",
".+$$$$$.        ",
".++$$$$$.       ",
" .++$$$##.      ",
"  .++$##@@.     ",
"   .+@#@+++.    ",
"    .@@+$$$$.   ",
"    .X@+$$$$$.  ",
"   .@XX++$$+++. ",
"  .#@@..++++O++.",
" .###.  .++O+o+.",
" .##.    .++Oo+.",
"  ..      .+++. ",
"           ...  "
};
