/* XPM */
static char *result[] = {
/* columns rows colors chars-per-pixel */
"16 20 8 1 ",
"  c blue",
". c black",
"X c #111111",
"o c #222222",
"O c #61020A",
"+ c #73010B",
"@ c #AAAAAA",
"# c white",
/* pixels */
"                ",
"    OOOOO       ",
"  OO+++++OO     ",
" OO+++++++OO    ",
" OO+++++++++O   ",
" OO++++++++++O  ",
" .OO+++++++++OO ",
" ..OOO++++++++O ",
" .#OOOOOOOO+++O ",
" .@OOOOOOOOOOOO ",
" OOOOOOOOOOOOOO ",
"  OOOOOOOOO+    ",
"   +OOOOOO++    ",
"   ++++++++     ",
"   +..+++++     ",
"   ....+++O.    ",
"   .....++O.    ",
"   ......OO.    ",
"         ...    ",
"                "
};
