/* XPM */
static char *result[] = {
/* columns rows colors chars-per-pixel */
"16 32 4 1 ",
"  c black",
". c #422518",
"X c #715642",
"o c None",
/* pixels */
"ooooo......ooooo",
"oooo..XXXX..oooo",
"ooo..XXXXXX..ooo",
"oo..XXXXXXXX..oo",
"o...XXXXXXXX...o",
"o...XXXXXXXX...o",
"o...XXXXXXXX...o",
"o....XXXXXX....o",
"o.....XXXX.....o",
"o......XX......o",
"oo............oo",
"oooX........Xooo",
"oooXX......XXooo",
"ooo XXX..XXX ooo",
"ooo XXXXXXXX ooo",
"ooo  XXXXXX  ooo",
"ooo   XXXX   ooo",
"ooo....XX....ooo",
"oooo  oooo  oooo",
"oooooooooooooooo",
"oooooooooooooooo",
"oooooooooooooooo",
"oooooooooooooooo",
"oooooooooooooooo",
"oooooooooooooooo",
"oooooooooooooooo",
"oooooooooooooooo",
"oooooooooooooooo",
"oooooooooooooooo",
"oooooooooooooooo",
"oooooooooooooooo",
"oooooooooooooooo"
};
