/* XPM */
static char *a2930a6b3db04bcb9f758497950439dft8pwL7JxsZiOEJnE[] = {
/* columns rows colors chars-per-pixel */
"24 32 114 2 ",
"   c blue",
".  c black",
"X  c #010202",
"o  c #090503",
"O  c #0A0604",
"+  c #0B0604",
"@  c #090706",
"#  c #0C0704",
"$  c #0D0705",
"%  c #0A0806",
"&  c #0C0C0D",
"*  c #140903",
"=  c #130A06",
"-  c #140B07",
";  c #120E0B",
":  c #14100D",
">  c #1E100A",
",  c #1F100A",
"<  c #1F110B",
"1  c gray9",
"2  c #1E1A17",
"3  c #20120B",
"4  c #20120C",
"5  c #21130C",
"6  c #27160E",
"7  c #261812",
"8  c #2C1E16",
"9  c #291D18",
"0  c #311A10",
"q  c #361E13",
"w  c #361E14",
"e  c #371F14",
"r  c #381F14",
"t  c #392014",
"y  c #392015",
"u  c #3C2216",
"i  c #3F2317",
"p  c #3E281C",
"a  c #202021",
"s  c #282A2B",
"d  c #2A2A2B",
"f  c #352A22",
"g  c #3A2C22",
"h  c #402316",
"j  c #402317",
"k  c #402417",
"l  c #412417",
"z  c #422417",
"x  c #432517",
"c  c #412418",
"v  c #422518",
"b  c #432618",
"n  c #432619",
"m  c #442618",
"M  c #442619",
"N  c #44271A",
"B  c #44281A",
"V  c #46291B",
"C  c #46291C",
"Z  c #462A1C",
"A  c #492C1E",
"S  c #4A2E1F",
"D  c #4B2E1F",
"F  c #432D21",
"G  c #423227",
"H  c #4D3022",
"J  c #43352B",
"K  c #4A3A2E",
"L  c #503425",
"P  c #513425",
"I  c #553829",
"U  c #553929",
"Y  c #563929",
"T  c #563A2A",
"R  c #573B2A",
"E  c #593D2C",
"W  c #593D2D",
"Q  c #5A3D2D",
"!  c #5A3E2D",
"~  c #5B3E2E",
"^  c #5C3F2E",
"/  c #5E4231",
"(  c #5E4837",
")  c #5D4839",
"_  c #634735",
"`  c #614A39",
"'  c #654A38",
"]  c #664B38",
"[  c #674F3D",
"{  c #684C3A",
"}  c #694E3B",
"|  c #6A4E3B",
" . c #6A4F3C",
".. c #6B4F3C",
"X. c #69503E",
"o. c #464646",
"O. c #484746",
"+. c #6E5340",
"@. c #6F5440",
"#. c #705541",
"$. c #715642",
"%. c #725742",
"&. c #725743",
"*. c #735743",
"=. c #735843",
"-. c #735844",
";. c #755944",
":. c #765A45",
">. c #775B46",
",. c #646464",
"<. c #6D6D6D",
"1. c gray51",
"2. c #9D9D9D",
"3. c gray80",
/* pixels */
"                x x x x l x l l                 ",
"              h V Y E E ! ! I V h               ",
"            v N P X.&.&.&.&.} P N v             ",
"      v v v v U X.X.&.&.&.&.&.} U v v v v       ",
"      v l C U } &...=.&.&.@.&.=.} U C v v       ",
"      v l A _ @.&.&.&.&.&.&.&.&.&._ A h v       ",
"    v v v v A / &.&.&.&.@.&.&.&./ A v v v v     ",
"  v v v v v h H ! E ' =.&.' ! ! H h l v v v v   ",
"    v v v v v v v v U X. .U v v v v v v v v     ",
"    v v v v v v v v V D A V v v v v v v v v     ",
"    v v l u 6 4 4 4 5 5 5 5 5 5 4 6 u l v v     ",
"    v v N r + . . . . . . . . . . + r N v v     ",
"    v v N r + . . . . . . . . . . + r N v v     ",
"    v v N e O . 1 <.o.. . o.<.1 . O q N v v     ",
"      v N y - . d 3.1.. . 1.3.d . * r N v       ",
"      v l h y * a 2.,.. . ,.2.a * y l l v       ",
"      v l h x 0 9 o.d . . s O.9 0 N h l v       ",
"      v C A N N t = O + O O * y N N A A v       ",
"        ] _ A l l q r r r e r h l A _ '         ",
"          +./ ! U V h l N h V U ! / +.          ",
"        &.&.X.=...P A A D A P } &.&.@.&.        ",
"        &.&.=.=.&.} } } }  . .&.&.&.&.&.        ",
"        =.&.&.&.;.;.) J J ) >.;.&.&.@.@.        ",
"        ..&.&.[ ` ` f & & f ) `  .&.&.&.        ",
"        &.&.&.G ; ; % . . % : 2 K &.&.&.        ",
"        E ! ^ p , , 8 g g 8 < 7 F ^ ! !         ",
"          h r q r v ^ *.;.~ v r q r u           ",
"            + O +             + O +             ",
"              .                 .               ",
"                                                ",
"                                                ",
"                                                "
};
