/* XPM */
static char *result[] = {
/* columns rows colors chars-per-pixel */
"16 32 7 1 ",
"  c black",
". c #222222",
"X c #422518",
"o c #715642",
"O c #AAAAAA",
"+ c white",
"@ c None",
/* pixels */
"@@@@XXXXX@@@@@@@",
"@@XXoooooXX@@@@@",
"@XXoooooooXX@@@@",
"@XXoooooooooX@@@",
"@ XooooooooooX@@",
"@ XXoooooooooX@@",
"@  XXXooooooooX@",
"@ +XXXXXXXXoooX@",
"@ OXXXXXXXXXXoX@",
"@X XXXXXXXXXXXX@",
"@@XXXXXXXXXo@@X@",
"@@@oXXXXXXoo@@@@",
"@@@oooooooo@@@@@",
"@@@@o ooooo@@@@@",
"@@@@   oooo@@@@@",
"@@@@    oo@@@@@@",
"@@@@     o@@@@@@",
"@@@@XXXX..@@@@@@",
"@@@@    @@@@@@@@",
"@@@@@@@@@@@@@@@@",
"@@@@@@@@@@@@@@@@",
"@@@@@@@@@@@@@@@@",
"@@@@@@@@@@@@@@@@",
"@@@@@@@@@@@@@@@@",
"@@@@@@@@@@@@@@@@",
"@@@@@@@@@@@@@@@@",
"@@@@@@@@@@@@@@@@",
"@@@@@@@@@@@@@@@@",
"@@@@@@@@@@@@@@@@",
"@@@@@@@@@@@@@@@@",
"@@@@@@@@@@@@@@@@",
"@@@@@@@@@@@@@@@@"
};
