/* XPM */
static char *result[] = {
/* columns rows colors chars-per-pixel */
"16 20 7 1 ",
"  c blue",
". c black",
"X c #111111",
"O c #61020A",
"+ c #73010B",
"@ c #AAAAAA",
"# c white",
"                ",
"     OOOOOO     ",
"    OO++++OO    ",
"   OO++++++OO   ",
"  OO++++++++OO  ",
" OOO++++++++OOO ",
" OOO++++++++OOO ",
" OOOO+++++++OOO ",
" OOOOO++++++OOO ",
" OOOOOO++++OOOO ",
" OOOOOOO++OOOOO ",
"  OOOOOOOOOOOO  ",
"   OOOOOOOOO+   ",
"   ++OOOOOO++   ",
"   ++++OO++++   ",
"    ++++++++.   ",
"    +++++++..   ",
"     ..+++...   ",
"         OOOO   ",
"         ...    ",
};
