/* XPM */
static char *result[] = {
/* columns rows colors chars-per-pixel */
"16 32 7 1 ",
"  c black",
". c #222222",
"X c #61020A",
"o c #73010B",
"O c #AAAAAA",
"+ c white",
"@ c blue",
/* pixels */
"@@@@@@@XXXXX@@@@",
"@@@@@XXoooooXX@@",
"@@@@XXoooooooXX@",
"@@@XoooooooooXX@",
"@@XooooooooooX @",
"@@XoooooooooXX @",
"@XooooooooXXX  @",
"@XoooXXXXXXXX+ @",
"@XoXXXXXXXXXXO @",
"@XXXXXXXXXXXX X@",
"@X@@oXXXXXXXXX@@",
"@@@@ooXXXXXXo@@@",
"@@@@@oooooooo@@@",
"@@@@@ooooo o@@@@",
"@@@@@oooo   @@@@",
"@@@@@@oo    @@@@",
"@@@@@@o     @@@@",
"@@@@@@..XXXX@@@@",
"@@@@@@@@    @@@@",
"@@@@@@@@@@@@@@@@",
"@@@@@@@@@@@@@@@@",
"@@@@@@@@@@@@@@@@",
"@@@@@@@@@@@@@@@@",
"@@@@@@@@@@@@@@@@",
"@@@@@@@@@@@@@@@@",
"@@@@@@@@@@@@@@@@",
"@@@@@@@@@@@@@@@@",
"@@@@@@@@@@@@@@@@",
"@@@@@@@@@@@@@@@@",
"@@@@@@@@@@@@@@@@",
"@@@@@@@@@@@@@@@@",
"@@@@@@@@@@@@@@@@"
};
