/* XPM */
static char *_d19303487f941ddacf26287e7765521bJ1TQBm2xxuR99ZX[] = {
/* columns rows colors chars-per-pixel */
"32 32 7 1 ",
"  c #2D0D1D",
". c gray21",
"X c gray27",
"o c gray35",
"O c gray42",
"+ c gray47",
"@ c #3B1D2D",
/* pixels */
"                                ",
" @@@@@@@@@@@@@@@@@@@@@@@@@@@@@@ ",
" @@@@@@@@@@@@@@@@@@@@@@@@@@@@@@ ",
" @..................XXXXXXXXXX@ ",
" @..................X++++++++X@ ",
" @.........XXXXXXXXXX++++++++X@ ",
" @.........XOOOOOOOOX++++++++X@ ",
" @XXXXXXXXXXOOOOOOOOX++++++++X@ ",
" @XooooooooXOOOOOOOOX++++++++X@ ",
" @XooooooooXOOOOOOOOX++++++++X@ ",
" @XooooooooXOOOOOOOOX++++++++X@ ",
" @XooooooooXOOOOOOOOX++++++++X@ ",
" @XooooooooXOOOOOOOOX++++++++X@ ",
" @XooooooooXOOOOOOOOX++++++++X@ ",
" @XooooooooXOOOOOOOOX++++++++X@ ",
" @XooooooooXOOOOOOOOX++++++++X@ ",
" @XooooooooXOOOOOOOOX++++++++X@ ",
" @XooooooooXOOOOOOOOX++++++++X@ ",
" @XooooooooXOOOOOOOOX++++++++X@ ",
" @XooooooooXOOOOOOOOX++++++++X@ ",
" @XooooooooXOOOOOOOOX++++++++X@ ",
" @XooooooooXOOOOOOOOX++++++++X@ ",
" @XooooooooXOOOOOOOOX++++++++X@ ",
" @XooooooooXOOOOOOOOX++++++++X@ ",
" @XooooooooXOOOOOOOOX++++++++X@ ",
" @XooooooooXOOOOOOOOX++++++++X@ ",
" @XooooooooXOOOOOOOOX++++++++X@ ",
" @XooooooooXOOOOOOOOX++++++++X@ ",
" @XooooooooXOOOOOOOOX++++++++X@ ",
" @@@@@@@@@@@@@@@@@@@@@@@@@@@@@@ ",
" @@@@@@@@@@@@@@@@@@@@@@@@@@@@@@ ",
"                                "
};
