/* XPM */
static char *_94322a4c90f46b58f2742faef2cf081bmxcmHulqfZz0NJv[] = {
/* columns rows colors chars-per-pixel */
"16 16 14 1 ",
"  c blue",
". c #633A28",
"X c #6E402C",
"o c #774630",
"O c #744432",
"+ c #964E32",
"@ c #8A5036",
"# c #906530",
"$ c #B8672A",
"% c #B8782A",
"& c #C47F33",
"* c #CA933E",
"= c #D49F3D",
"- c #EBB97C",
/* pixels */
"                ",
"                ",
"     ##+++      ",
"   ##--$$$++    ",
"  #**--&&$$$+   ",
"  #-====-&&$+   ",
" #X..======&$+  ",
" #ooo.....==&#  ",
" #===@oooo..X#  ",
"  +$$===-=@@o   ",
"  +=%$$$$$==+   ",
"   ++==%%%++    ",
"     +++++      ",
"                ",
"                ",
"                "
};
