/* XPM */
static char *_243c57151844ff3bbb10b2f63163b21n1s0F54xSe4cAjSX[] = {
/* columns rows colors chars-per-pixel */
"22 20 7 1 ",
"  c blue",
". c black",
"X c #28414B",
"o c #41555D",
"O c #458A79",
"+ c #5ECB93",
"@ c white",
/* pixels */
"                      ",
"            O+     O  ",
"           XO+     O  ",
"          XXO++XXXOO  ",
"         OXXO++++++O  ",
"         OOXOO++O+++  ",
"        XO.OOOO++O+O+ ",
"        XO.OOO++++O+O ",
"       XO..O.+...+O+. ",
"       XO..O.+..@+O+@ ",
"     XXXO.OO.+...OOO. ",
" ooXXXXoOOOO.+++.OOO. ",
"ooooXXXoOOOO++...OOO. ",
"  oooXXoOOOOO+++++++++",
"  oooooooOOOO++..@.@.+",
"   ooooooOOOOO.@....@ ",
"    oooooo+oOOOOOOOOo ",
"      ooo+++ooOOOooo  ",
"          +++oooooo   ",
"                OOO   "
};
