/* XPM */
static char *_88799b4e3a044ffc15350f2f326b3712nNNf9ox3RntFXuy[] = {
/* columns rows colors chars-per-pixel */
"22 20 7 1 ",
"  c blue",
". c black",
"X c #28414B",
"o c #41555D",
"O c #458A79",
"+ c #5ECB93",
"@ c white",
/* pixels */
"  O     +O            ",
"  O     +OX           ",
"  OOXXX++OXX          ",
"  O++++++OXXO         ",
"  +++O+++OXOO         ",
" +O+O++OOOO.OX        ",
" O+O++++OOO.OX        ",
" .+O+...+.O..OX       ",
" @+O+@..+.O..OX       ",
" .OOO...+.OO.OXXX     ",
" .OOO.+++.OOOOOXXXXoo ",
" .OOO...++OOOOOXXXoooo",
"+++++++++OOOOOOXXooo  ",
"+.@.@..++OOOOOOXoooo  ",
" @....@.OOOOOOooooo   ",
" oOOOOOOOOOOOoooooo   ",
"  oooOOOOooooooooo    ",
"  Ooooooooooo+o       ",
" OOO       +++        ",
"OOO       +++         "
};
