/* XPM */
static char *_14712ede5b448bec1bcd848ce0d1d29ht5yoUZXzSP6Jfbz[] = {
/* columns rows colors chars-per-pixel */
"32 32 7 1 ",
"  c blue",
". c black",
"X c #28414B",
"o c #41555D",
"O c #458A79",
"+ c #5ECB93",
"@ c white",
/* pixels */
"                                ",
"                                ",
"                                ",
"                                ",
"                                ",
"                                ",
"                                ",
"                                ",
"                                ",
"                                ",
"                                ",
"                                ",
"            O+     O            ",
"           XO+     O            ",
"          XXO++XXXOO            ",
"         OXXO++++++O            ",
"         OOXO+++O+++            ",
"         O.OOOO++O+O+           ",
"        XO.OOO++++O+O           ",
"        O..O.+...+O+.           ",
"       XO..O.+..@+O+@           ",
"       XO.OO.+...OOO.           ",
"    oXXOOOOO.+++.OOO.           ",
" XXXXXXOOOOO++...OOO.           ",
"XXooXXXOOOOOO+++++++++          ",
"  oooXXOOOOOO++..@.@.+          ",
"   oooooOOOOOO.@....@           ",
"   ooooooooOOOOOOOOOo           ",
"     ooooooooooOOOoo            ",
"        o+ooooooooo             ",
"         +++     OOO            ",
"          +++                   "
};
