/* XPM */
static char *_88799b4e3a044ffc15350f2f326b3712nNNf9ox3RntFXuy[] = {
/* columns rows colors chars-per-pixel */
"22 20 7 1 ",
"  c blue",
". c black",
"X c #28414B",
"o c #41555D",
"O c #458A79",
"+ c #5ECB93",
"@ c white",
/* pixels */
"            O+     O  ",
"           XO+     O  ",
"          XXO++XXXOO  ",
"         OXXO++++++O  ",
"         OOXO+++O+++  ",
"        XO.OOOO++O+O+ ",
"        XO.OOO++++O+O ",
"       XO..O.+...+O+. ",
"       XO..O.+..@+O+@ ",
"     XXXO.OO.+...OOO. ",
" ooXXXXOOOOO.+++.OOO. ",
"ooooXXXOOOOO++...OOO. ",
"  oooXXOOOOOO+++++++++",
"  ooooXOOOOOO++..@.@.+",
"   oooooOOOOOO.@....@ ",
"   ooooooOOOOOOOOOOOo ",
"    oooooooooOOOOooo  ",
"       o+ooooooooooO  ",
"        +++       OOO ",
"         +++       OOO"
};
