/* XPM */
static char *_243c57151844ff3bbb10b2f63163b21n1s0F54xSe4cAjSX[] = {
/* columns rows colors chars-per-pixel */
"32 32 7 1 ",
"  c blue",
". c black",
"X c #28414B",
"o c #41555D",
"O c #458A79",
"+ c #5ECB93",
"@ c white",
/* pixels */
"                                ",
"                                ",
"                                ",
"                                ",
"                                ",
"                                ",
"                                ",
"                                ",
"                                ",
"                                ",
"                                ",
"                                ",
"                                ",
"            O     +O            ",
"            O     +OX           ",
"            OOXXX++OXX          ",
"            O++++++OXXO         ",
"            +++O++OOXOO         ",
"           +O+O++OOOO.OX        ",
"           O+O++++OOO.OX        ",
"           .+O+...+.O..OX       ",
"           @+O+@..+.O..OX       ",
"           .OOO...+.OO.OXXX     ",
"           .OOO.+++.OOOOoXXXXoo ",
"           .OOO...++OOOOoXXXoooo",
"          +++++++++OOOOOoXXooo  ",
"          +.@.@..++OOOOooooooo  ",
"           @....@.OOOOOoooooo   ",
"           oOOOOOOOOo+oooooo    ",
"            oooOOOoo+++ooo      ",
"             oooooo+++          ",
"             OOO                "
};
