/* XPM */
static char *_830bd072dd14666bb9228d4dac35608rPUGpDpk0bWccu9N[] = {
/* columns rows colors chars-per-pixel */
"22 20 7 1 ",
"  c blue",
". c black",
"X c #28414B",
"o c #41555D",
"O c #458A79",
"+ c #5ECB93",
"@ c white",
/* pixels */
"             O+     O ",
"            XO+     O ",
"           XXO++XXOO  ",
"         OXXO++++++O  ",
"         OOXO+++O+++  ",
"        XO.OOOO++O+OO ",
"        XO.OOOOO++O+O ",
"       XO..O.+...+O+. ",
"       XO..O.+..@OOO@ ",
"   ooXXXO.OO.+.+.OOO. ",
" XXXXXXOOOOO.+++.O++. ",
" XXoXXXOOOOO++..+++++ ",
"  oooXXOOOOO++++.@.@.+",
"   oooXOOOOOO++......+",
"   oooooOOOOOOO.@...@ ",
"    oooooOOOOOOOOOOOo ",
"      ooooooooOOOooo  ",
"          ooo+ooooo   ",
"             +++      ",
"              +++     "
};
