/* XPM */
static char *c1b04f9ade4f4fe8f3e680a9c8d5659bgnGlvYwhWFfiaC76[] = {
/* columns rows colors chars-per-pixel */
"32 32 7 1 ",
"  c blue",
". c black",
"X c #28414B",
"o c #41555D",
"O c #458A79",
"+ c #5ECB93",
"@ c white",
/* pixels */
"                                ",
"                                ",
"                                ",
"                                ",
"                                ",
"                                ",
"                                ",
"                                ",
"                                ",
"                                ",
"                                ",
"                                ",
"                                ",
"             O+     O           ",
"           XO+     O            ",
"          XXO++XXXOO            ",
"         OXXO++++++O            ",
"         OOXOO++O+++            ",
"        XO.OOOO++O+O+           ",
"        XO.OOO++++O+O           ",
"       XO..O.+...+O+.           ",
"       XO..O.+..@+O+@           ",
"     XXXO.OO.+...OOO.           ",
" XXooXXoOOOO.+++.OOO.           ",
"XXXXoXXoOOOO++...OOO.           ",
"  XoooXoOOOOO+++++++++          ",
"  XXoooooOOOO++..@.@.+          ",
"   XXooooOOOOO.@....@           ",
"    XoooooOoo+oOOOOOo           ",
"      oooooo++++Oooo            ",
"          ooo+++ooo             ",
"               OOO              "
};
