/* XPM */
static char *_e7db18c18154532d839fb9c0ad05986rrE9l3NOaJBw8Kp5[] = {
/* columns rows colors chars-per-pixel */
"32 32 7 1 ",
"  c blue",
". c black",
"X c #28414B",
"o c #41555D",
"O c #458A79",
"+ c #5ECB93",
"@ c white",
/* pixels */
"                                ",
"                                ",
"                                ",
"                                ",
"                                ",
"                                ",
"                                ",
"                                ",
"                                ",
"                                ",
"                                ",
"                                ",
"                                ",
"             OO     O           ",
"            XO+     O           ",
"           XXO++XXOO            ",
"         XXXO++++++O            ",
"        XOOXO+++O+++            ",
"        XO.OOOO++O+OO           ",
"       XXO.OOOOO++O+O           ",
"       XXO.O.+...+O+.           ",
"   ooXXXO..O.+..@OOO@           ",
" XXXXXXXO.OO.+.+.OOO.           ",
"XoooXXXOOOOO.+++.O++.           ",
"  oooXXOOOOO++..+++++           ",
"  ooooXOOOOO++++.@.@.+          ",
"   oooXOOOOOO++......+          ",
"    ooooOOOOOOO.@...@           ",
"      oooOOOOOOOOOOOo           ",
"        oooooOo+oooO            ",
"          ooooo+++o             ",
"                +++             "
};
