/* XPM */
static char *_24209bf50f84c70ddd6b3e6ceeb2f42caRrsZ4Jo02wKTxt[] = {
/* columns rows colors chars-per-pixel */
"32 32 7 1 ",
"  c blue",
". c black",
"X c #28414B",
"o c #41555D",
"O c #458A79",
"+ c #5ECB93",
"@ c white",
/* pixels */
"                                ",
"                                ",
"                                ",
"                                ",
"                                ",
"                                ",
"                                ",
"                                ",
"                                ",
"                                ",
"                                ",
"                                ",
"                                ",
"             OO     O           ",
"            XO+     O           ",
"           XXO++XXOO            ",
"         XXXO++++++O            ",
"        XOOXO+++O+++            ",
"        XO.OOOO++O+OO           ",
"       XXO.OOOOO++O+O           ",
"       XXO.O.+...+O+.           ",
"     XXXO..O.+..@OOO@           ",
" XXoXXXXO.OO.+.+.OOO.           ",
"XXooXXXOOOOO.+++.OOO.           ",
" XoooXXOOOOO++..+++++           ",
"  XoooXOOOOO++++.@.@.+          ",
"   oooXOOOOOO++......+          ",
"   oooooOOOOOOO.@...@           ",
"    oooooOOOOOOOOoOOo           ",
"       OoooooOOoo+oo            ",
"       OOOooooooo++++           ",
"        OOO       +++           "
};
