/* XPM */
static char *fa783d55c17f46b1f040f08a1c2c8f8cO9gisiDHXRbLxn3Q[] = {
/* columns rows colors chars-per-pixel */
"32 32 7 1 ",
"  c blue",
". c black",
"X c #28414B",
"o c #41555D",
"O c #458A79",
"+ c #5ECB93",
"@ c white",
/* pixels */
"                                ",
"                                ",
"                                ",
"                                ",
"                                ",
"                                ",
"                                ",
"                                ",
"                                ",
"                                ",
"                                ",
"                                ",
"                                ",
"             OO     O           ",
"            XO+     O           ",
"          XXO++XXXOO            ",
"         OXXO++++++O            ",
"         OOXOO++O+++            ",
"        XO.OOOO++O+O+           ",
"        XO.OOO++++O+O           ",
"       XO..O.+...+O+.           ",
"       XO..O.+..@+O+@           ",
"     XXXO.OO.+...OOO.           ",
" XXooXXoOOOO.+++.OOO.           ",
"XXXXoXXoOOOO++...O+++           ",
" XXoooXoOOOOO+++++.@.+          ",
"   XooXoOOOOO++..@.@.+          ",
"   XXooooOOOOO.@....@           ",
"     XoooooOOOOo+oOOo           ",
"       oooooooo++++o            ",
"          oooooo+++             ",
"          OOO                   "
};
