/* XPM */
static char *_3a904d2c6524378d529409a032582e45UoPFKCjhja0gTjN[] = {
/* columns rows colors chars-per-pixel */
"32 32 6 1 ",
"  c #2D0D1D",
". c #3B1D2D",
"X c #4F2736",
"o c #653444",
"O c #8B4A3E",
"+ c #A25B45",
/* pixels */
". . . . . . . . . . . . . . . . ",
" ooOOOOOOOOOOOOOOOOOOO.ooX+OOoo ",
" XoOOOOOOOOOOOOOOOOOOO.OOo+++oX ",
" XXooooooooooooooooooo.XX.OooX. ",
".XXooooooooooooooooooo.XX.Ooo.. ",
" XXooooooooooooooooooo.XX.Ooo.. ",
".XXooooooooooooooooooo.XX.Ooo.. ",
" XXooo............Oooo.XX.Ooo.. ",
".XXooo.XXXXXXXXXXXOooo.XX.Ooo.. ",
" XXooo.XXXXXXXXXXXOooo.XX.Ooo.. ",
" XXooo.XXXXXXXXXXXOooo.XX.Ooo.. ",
" XXooo.XXX++Oo.XXXOooo.XX.Ooo.. ",
" XXooo.XXX+ooo.XXXOooo.XX.Ooo.. ",
" XXooo.XXXOooo.XXXOooo.XX.Ooo.. ",
" XXooo.XXXOooo.XXXOooo.XX.Ooo.. ",
" XXooo.XXXOooo.XXXOooo.XX.OooX. ",
" XXooo.XXXOooo.XXXOooo.XX.Ooo.. ",
" XXooo.XXXOooo++++Oooo.XX.OooX. ",
" XXooo.XXXOooooooooooo.XX.Ooo.. ",
" XXooo.XXXOooooooooooo.XX.OooX. ",
".XXooo.XXXoooooooooooo.XX.Ooo.. ",
" XXooo.XXX.............XX.Ooo.. ",
".XXooo.XXXXXXXXXXXXXXXXXX.Ooo.. ",
" XXooo.XXXXXXXXXXXXXXXXXX.Ooo.. ",
".XXooo....................Ooo.. ",
" XXoooO+++++++++++++++++++Ooo.. ",
" XXoooooooooooooooooooooooooo.. ",
" XXoooooooooooooooooooooooooo.. ",
".XXoooooooooooooooooooooooooo.. ",
" X............................. ",
" .............. ............... ",
"                                ",
};
