/* XPM */
static char *_3a904d2c6524378d529409a032582e45UoPFKCjhja0gTjN[] = {
/* columns rows colors chars-per-pixel */
"32 32 6 1 ",
"  c #2D0D1D",
". c #3B1D2D",
"X c #4F2736",
"o c #653444",
"O c #8B4A3E",
"+ c #A25B45",
/* pixels */
". . . . . . . . . . . . . . . . ",
" ooOOOOOOOOOOOOOOOOOOOOOOOOOOOo ",
" XoOOOOOOOOOOOOOOOOOOOOOOOOOOoX ",
" XXooooooooooooooooooooooooooX. ",
".XXoooooooooooooooooooooooooo.. ",
" XXoo .....................oo.. ",
".XXoo.++++++++O.X++++++++O.oo.. ",
" XXoo.+ooooooooX.+oooooooo.oo.. ",
".XXoo.Oo.....oo.XOo ....ooXoo.. ",
" XXoo.+o.X.X.ooX.oo..X.Xoo.oo.. ",
" XXoo.Oo.XX.X.X.X.X.X.X.oXXoo.. ",
" XXoo.Oo.X.O++++++++OX.Xoo.oo.. ",
" XXoo.oo..XOooooooooo.XXoXXoo.. ",
" XXoo.OoOO.OoooooooooXOOoX.oo.. ",
" XXoo.ooooXOoo....ooo.oXoXXoo.. ",
" XXoo..X..XOoo.X.XooXX....Xoo.. ",
" XXoo.XXXXXOooX.X.ooo.X.X.Xoo.. ",
" XXoo.O++OXooo.X.XoXoXO++OXoo.. ",
" XXoo.OoooXOooO++Oooo.ooooXoo.. ",
" XXoo.Oo ..oooooooooX...oo.oo.. ",
".XXoo.Oo..XoooooXoXXo...ooXoo.. ",
" XXoo.Oo.XX.............oo.oo.. ",
".XXoo.oo..X.X+O..+O.....oXXoo.. ",
" X.oo.Oo.X.X.oo..Oo....Xoo.oo.. ",
".XXoo.ooO+++Ooo..OoO+++OoXXoo.. ",
" XXoo.ooooooXoXX.ooooooXXXXoo.. ",
" XXoo...........X.........Xoo.. ",
" XXoooooooooooooooooooooooooo.. ",
".XXoooooooooooooooooooooooooo.. ",
" X............................. ",
" .............. ............... ",
"                                "
};
